<svg xmlns="http://www.w3.org/2000/svg" aria-hidden="true" style="position:absolute;width:0;height:0;overflow:hidden">
  <defs>
    <symbol id="icon-name" viewBox="0 0 32 32">
      <path d="M16 16c2.947 0 5.333-2.387 5.333-5.333S18.946 5.334 16 5.334c-2.947 0-5.333 2.387-5.333 5.333S13.054 16 16 16zm0 2.667c-3.56 0-10.667 1.787-10.667 5.333v1.333c0 .733.6 1.333 1.333 1.333h18.667c.733 0 1.333-.6 1.333-1.333V24c0-3.547-7.107-5.333-10.667-5.333z"/>
    </symbol>
    <symbol id="icon-email" viewBox="0 0 43 32">
      <path d="M37.333 0h-32c-2.2 0-3.98 1.8-3.98 4l-.02 24c0 2.2 1.8 4 4 4h32c2.2 0 4-1.8 4-4V4c0-2.2-1.8-4-4-4zm-.8 8.5-14.14 8.84c-.64.4-1.48.4-2.12 0L6.133 8.5c-.5-.32-.8-.86-.8-1.44 0-1.34 1.46-2.14 2.6-1.44l13.4 8.38 13.4-8.38c1.14-.7 2.6.1 2.6 1.44 0 .58-.3 1.12-.8 1.44z"/>
    </symbol>
    <symbol id="icon-phone" viewBox="0 0 32 32">
      <path d="m28.865 21.822-4.525-.517a3.543 3.543 0 0 0-2.921 1.015l-3.278 3.278A26.8 26.8 0 0 1 6.402 13.859l3.296-3.296a3.545 3.545 0 0 0 1.015-2.921l-.517-4.489A3.566 3.566 0 0 0 6.651 0H3.569C1.556 0-.118 1.675.006 3.687.95 18.9 13.117 31.049 28.312 31.993c2.013.125 3.687-1.55 3.687-3.563v-3.082c.018-1.799-1.336-3.313-3.135-3.527z"/>
    </symbol>
    <symbol id="icon-linkedin" viewBox="0 0 32 32">
      <path d="M31.992 32v-.001H32V20.263c0-5.741-1.236-10.164-7.948-10.164-3.227 0-5.392 1.771-6.276 3.449h-.093v-2.913h-6.364v21.364h6.627V21.42c0-2.785.528-5.479 3.977-5.479 3.399 0 3.449 3.179 3.449 5.657v10.401h6.62zM.528 10.636h6.635V32H.528V10.636zM3.843 0C1.722 0 0 1.721 0 3.843s1.721 3.879 3.843 3.879c2.121 0 3.843-1.757 3.843-3.879A3.846 3.846 0 0 0 3.843 0z"/>
    </symbol>
    <symbol id="icon-instagram" viewBox="0 0 32 32">
      <path d="M31.969 9.408c-.075-1.7-.35-2.869-.744-3.882a7.803 7.803 0 0 0-1.85-2.838A7.867 7.867 0 0 0 26.543.844C25.524.45 24.361.175 22.661.1 20.948.019 20.404 0 16.06 0s-4.888.019-6.595.094c-1.7.075-2.869.35-3.882.744a7.803 7.803 0 0 0-2.838 1.85A7.867 7.867 0 0 0 .901 5.52C.507 6.539.232 7.702.157 9.402c-.081 1.713-.1 2.257-.1 6.601s.019 4.888.094 6.595c.075 1.7.35 2.869.744 3.882a7.895 7.895 0 0 0 1.85 2.838 7.867 7.867 0 0 0 2.832 1.844c1.019.394 2.182.669 3.882.744 1.706.075 2.25.094 6.595.094s4.888-.019 6.595-.094c1.7-.075 2.869-.35 3.882-.744a8.181 8.181 0 0 0 4.682-4.682c.394-1.019.669-2.182.744-3.882.075-1.707.094-2.25.094-6.595s-.006-4.888-.081-6.595zm-2.882 13.065c-.069 1.563-.331 2.407-.55 2.969a5.31 5.31 0 0 1-3.038 3.038c-.563.219-1.413.481-2.969.55-1.688.075-2.194.094-6.464.094s-4.782-.019-6.464-.094c-1.563-.069-2.407-.331-2.969-.55a4.926 4.926 0 0 1-1.838-1.194 4.974 4.974 0 0 1-1.194-1.838c-.219-.563-.481-1.413-.55-2.969-.075-1.688-.094-2.194-.094-6.464s.019-4.782.094-6.464c.069-1.563.331-2.407.55-2.969a4.868 4.868 0 0 1 1.2-1.838A4.974 4.974 0 0 1 6.639 3.55c.563-.219 1.413-.481 2.969-.55 1.688-.075 2.194-.094 6.464-.094 4.276 0 4.782.019 6.464.094 1.563.069 2.407.331 2.969.55a4.914 4.914 0 0 1 1.838 1.194 4.974 4.974 0 0 1 1.194 1.838c.219.563.481 1.413.55 2.969.075 1.688.094 2.194.094 6.464s-.019 4.77-.094 6.458z"/>
      <path d="M16.059 7.783c-4.538 0-8.22 3.682-8.22 8.22s3.682 8.22 8.22 8.22 8.22-3.682 8.22-8.22-3.682-8.22-8.22-8.22zm0 13.552a5.333 5.333 0 0 1 0-10.664 5.333 5.333 0 0 1 0 10.664zM26.524 7.458a1.919 1.919 0 1 1-3.838 0 1.919 1.919 0 0 1 3.838 0z"/>
    </symbol>
    <symbol id="icon-facebook" viewBox="0 0 18 32">
      <path d="M13.329 5.313h2.921V.225C15.746.156 14.013 0 11.994 0 7.782 0 4.897 2.649 4.897 7.519V12H.249v5.688h4.648V32h5.699V17.689h4.46l.708-5.688h-5.169V8.082c.001-1.644.444-2.769 2.735-2.769z"/>
    </symbol>
    <symbol id="icon-twitter" viewBox="0 0 37 32">
      <path d="M36.571 4.66c-1.36.597-2.809.992-4.32 1.184A7.452 7.452 0 0 0 35.549 1.7a14.992 14.992 0 0 1-4.754 1.815 7.514 7.514 0 0 0-5.477-2.373c-4.151 0-7.493 3.369-7.493 7.499 0 .594.05 1.166.174 1.71C11.766 10.047 6.25 7.06 2.545 2.509a7.547 7.547 0 0 0-1.026 3.79 7.509 7.509 0 0 0 3.33 6.231 7.412 7.412 0 0 1-3.387-.923v.082c0 3.643 2.599 6.67 6.007 7.367a7.474 7.474 0 0 1-1.966.247c-.48 0-.965-.027-1.419-.128.971 2.969 3.728 5.152 7.006 5.223a15.069 15.069 0 0 1-9.296 3.198c-.615 0-1.205-.027-1.794-.103 3.321 2.142 7.257 3.365 11.502 3.365 13.797 0 21.339-11.428 21.339-21.335 0-.331-.011-.651-.027-.969 1.488-1.056 2.738-2.375 3.758-3.893z"/>
    </symbol>
    <symbol id="icon-Vector-1" viewBox="0 0 30 32">
      <path d="m29.773 22.098-8.443-8.505.937-4.615c.242.094.499.144.758.146h.006a2.159 2.159 0 1 0-2.008-1.435l-4.96.605L7.972.161a.534.534 0 0 0-.377-.16.532.532 0 0 0-.373.155L5.709 1.66a.534.534 0 0 0 0 .754l.814.826a14.943 14.943 0 0 0 2.519 17.663.513.513 0 0 0 .146.098c-.034.18-.051.364-.052.547v6.187h-6.4a2.67 2.67 0 0 0-2.667 2.667v1.067c0 .295.239.533.533.533h24.533a.533.533 0 0 0 .533-.533v-1.067a2.67 2.67 0 0 0-2.667-2.667h-6.4v-2.742a15.09 15.09 0 0 0 3.049.32 14.854 14.854 0 0 0 7.04-1.783l.818.823a.534.534 0 0 0 .377.16.532.532 0 0 0 .373-.155l1.513-1.504a.534.534 0 0 0 0-.754zM22.28 6.233a1.067 1.067 0 1 1 .753 1.822h-.003a1.067 1.067 0 0 1-.747-1.823h-.002zm-1.256 3.505-.598 2.946-1.175-1.182 1.774-1.763zm-.605-.902-1.92 1.909-1.485-1.493 3.405-.415zM23.004 28.8a1.6 1.6 0 0 1 1.6 1.6v.533H1.137V30.4a1.6 1.6 0 0 1 1.6-1.6h20.267zm-7.467-2.133v1.067h-5.333v-1.067h5.333zM10.204 25.6v-4.053c0-1.294 1.196-2.347 2.667-2.347s2.667 1.053 2.667 2.347V25.6h-5.333zm6.4-1.696v-2.357c0-1.882-1.675-3.413-3.733-3.413A3.8 3.8 0 0 0 9.59 19.92 13.87 13.87 0 0 1 7.311 4.033l18.602 18.708a13.818 13.818 0 0 1-9.309 1.163zm11.289-.684L6.836 2.039l.755-.752 7.935 7.98c.004 0 .006.007.01.01l13.115 13.191-.757.752z"/>
      <path d="M12.876 20.267h-.005a1.6 1.6 0 1 0-.004 3.2h.005a1.6 1.6 0 1 0 .004-3.2zm.373 1.978a.534.534 0 0 1-.752-.756.534.534 0 0 1 .373-.155.534.534 0 0 1 .374.911h.005z"/>
    </symbol>
    <symbol id="icon-Vector-2" viewBox="0 0 31 32">
      <path d="M30.797 15.301C30.795 6.849 23.942-.002 15.489 0S.186 6.855.188 15.308a15.304 15.304 0 0 0 10.649 14.576.662.662 0 0 0 .529-.065.637.637 0 0 0 .283-.356l3.865-12.25a1.912 1.912 0 1 0-.84-3.635L9.568 8.471a.637.637 0 0 0-.902.902l5.103 5.109a1.876 1.876 0 0 0 .536 2.309l-3.683 11.673C3.344 25.783-.382 17.71 2.299 10.432S13.053-.572 20.331 2.109c7.278 2.681 11.004 10.754 8.323 18.032a14.042 14.042 0 0 1-7.462 7.973l-.398-1.874a.637.637 0 0 0-1.049-.344l-3.837 3.426a.637.637 0 0 0 .231 1.084l4.899 1.564a.638.638 0 0 0 .819-.74l-.391-1.839a15.255 15.255 0 0 0 9.329-14.089zm-15.305-.637a.638.638 0 1 1 0 1.277.638.638 0 0 1 0-1.277zm2.101 14.864 2.184-1.948.603 2.84-2.787-.892z"/>
    </symbol>
    <symbol id="icon-Vector-3" viewBox="0 0 41 32">
      <path d="M2.047 31.732h32.751c1.13 0 2.047-.916 2.047-2.047v-2.729c0-1.13-.917-2.047-2.047-2.047h-.682V7.894l3.876-3.671a2.06 2.06 0 1 0-.955-.976l-2.92 2.768V4.441c0-1.13-.916-2.047-2.047-2.047H4.778c-1.13 0-2.047.917-2.047 2.047V24.91h-.682c-1.13 0-2.047.916-2.047 2.047v2.729c0 1.13.917 2.047 2.047 2.047zM38.892 1.711a.682.682 0 1 1 0 1.363.682.682 0 0 1 0-1.363zM4.094 4.44c0-.377.306-.682.682-.682h27.292c.377 0 .682.306.682.682v2.865l-1.365 1.297V5.804a.682.682 0 0 0-.682-.682H6.14a.682.682 0 0 0-.682.682v17.058c0 .377.306.682.682.682h24.563a.682.682 0 0 0 .682-.682V10.479l1.365-1.293v15.723H4.093V4.44zm6.141 8.87a2.045 2.045 0 0 0-1.051 3.807 2.047 2.047 0 0 0 2.468-.289l2.372 1.19c.276.138.61.073.815-.157l5.042-5.672 4.956 3.714a.683.683 0 0 0 .878-.05l4.307-4.08v10.408H6.823V6.488h23.199v3.405l-4.828 4.572-4.998-3.747a.682.682 0 0 0-.919.092l-5.111 5.751-1.911-.956c.014-.082.023-.165.026-.248 0-1.13-.917-2.047-2.047-2.047zm.682 2.047a.682.682 0 1 1-1.363 0 .682.682 0 0 1 1.363 0zm4.094 10.917h6.823v.682a.682.682 0 0 1-.682.682h-5.459a.682.682 0 0 1-.682-.682v-.682zm-13.646.682c0-.377.306-.682.682-.682h11.599v.682c0 1.13.916 2.047 2.047 2.047h5.459c1.13 0 2.047-.916 2.047-2.047v-.682h11.599c.377 0 .682.305.682.682v2.729a.682.682 0 0 1-.682.682H2.047a.682.682 0 0 1-.682-.682v-2.729z"/>
    </symbol>
    <symbol id="icon-Vector-4" viewBox="0 0 29 32">
      <path d="M27.75 13.653a1.99 1.99 0 0 0-1.334-.791 1.992 1.992 0 0 0-1.504.395l-1.406 1.078-2.131 1.591-1.525-.607c2.719-1.22 4.619-3.939 4.619-7.096 0-4.293-3.506-7.785-7.816-7.785S8.837 3.93 8.837 8.223c0 1.556.465 3.003 1.258 4.22l-3.103-.027h-.005c-.01 0-.017.005-.026.005a.556.556 0 0 0-.174.035c-.014.005-.029.008-.043.015l-.022.007-3.63 1.792-.001.001-2.126 1.022a.468.468 0 0 0-.071.04 2 2 0 0 0 .514 3.575 2.008 2.008 0 0 0 1.548-.144l1.558-.829 2.542-1.313 1.523-.009-6.11 6.081-.002.001-1.503 1.497c-.355.353-.55.822-.55 1.322s.195.97.55 1.323c.365.363.844.545 1.324.545s.959-.182 1.325-.545l1.476-1.47 1.955-1.459 1.011 1.007-1.978 1.97-.002.001-1.503 1.497c-.355.353-.55.822-.55 1.322s.195.97.55 1.323c.365.363.845.545 1.325.545s.96-.182 1.325-.545l3.909-3.892.001-.002 1.134-1.123-.004-.004c.007-.007.017-.01.025-.017l5.8-6.353 3.897.555a.583.583 0 0 0 .294-.037c.02-.007.037-.017.056-.026.022-.011.044-.017.065-.03l3.608-2.395c.013-.009.02-.023.033-.033.014-.011.032-.016.045-.029l1.428-1.337a1.998 1.998 0 0 0 .238-2.652zM2.392 17.707a.802.802 0 0 1-.627.058.802.802 0 0 1-.238-1.415l1.475-.71.504 1.474-1.114.592zm3.927-2.052-1.738.898-.493-1.441 2.276-1.123-.044 1.666zm16.953-7.434a6.515 6.515 0 0 1-.672 2.874l-4.695-2.132a2.088 2.088 0 0 0-.885-1.558l1.644-5.457c2.67.849 4.609 3.34 4.609 6.274zm-13.236 0c0-3.632 2.969-6.587 6.618-6.587.284 0 .562.024.837.059l-1.608 5.338c-.022-.001-.042-.007-.064-.007-1.159 0-2.102.94-2.102 2.096s.943 2.096 2.102 2.096c.78 0 1.453-.431 1.817-1.061l4.337 1.97a6.616 6.616 0 0 1-5.318 2.683c-3.649 0-6.618-2.955-6.618-6.587zm6.687.899c0 .495-.406.898-.905.898s-.905-.403-.905-.898.406-.898.905-.898.905.403.905.898zM2.768 25.989a.683.683 0 0 1-.959.001.667.667 0 0 1 0-.948l1.08-1.076.956.952-1.077 1.072zm3.608 4.192a.683.683 0 0 1-.96.001.667.667 0 0 1 0-.948l1.081-1.077.956.952-1.077 1.072zm3.909-3.895-.002.001-1.982 1.976-.956-.952 1.98-1.971v-.001l.002-.001c.045-.045.073-.099.101-.152.008-.016.023-.029.029-.045.019-.046.022-.096.029-.144.004-.028.016-.053.016-.081 0-.04-.014-.079-.023-.119-.007-.036-.007-.073-.021-.107a.64.64 0 0 0-.102-.155c-.011-.013-.016-.03-.028-.043h-.001l-.001-.002-1.804-1.796c-.019-.019-.044-.027-.065-.043a.575.575 0 0 0-.098-.065.57.57 0 0 0-.105-.037.553.553 0 0 0-.116-.022.634.634 0 0 0-.107.005.59.59 0 0 0-.117.023c-.038.012-.071.031-.106.05-.022.013-.047.017-.068.032l-1.991 1.486-1.011-1.007 2.694-2.679 4.896 4.815-1.041 1.032zm7.657-7.879c-.017-.002-.034.004-.051.003a.617.617 0 0 0-.336.085.521.521 0 0 0-.093.069c-.014.013-.032.019-.045.033l-5.275 5.778-4.86-4.779 3.181-3.164a.6.6 0 0 0-.426-1.022v-.001l-2.491.015.031-1.805 3.485.03a7.8 7.8 0 0 0 5.593 2.359c.491 0 .97-.051 1.437-.138.045.036.089.073.146.095l2.706 1.078.171.852.2.994-3.371-.48zm4.537.201-.352-1.749 1.624-1.213 1.063 1.411-2.335 1.551zm4.215-3.179-.941.882-1.046-1.388.934-.716a.811.811 0 0 1 1.149.158.802.802 0 0 1-.096 1.064z"/>
    </symbol>
    <svg xmlns="http://www.w3.org/2000/svg" aria-hidden="true" style="position:absolute;width:0;height:0;overflow:hidden">
  <defs>
    <symbol id="icon-close" viewBox="0 0 32 32">
      <path d="M32 3.223 28.777 0 16 12.777 3.223 0 0 3.223 12.777 16 0 28.777 3.223 32 16 19.223 28.777 32 32 28.777 19.223 16 32 3.223z"/>
    </symbol>
    <!-- <symbol id="icon-checkbox" viewBox="0 0 40 32">
      <path fill="none" d="M33.782 1.02a3.668 3.668 0 0 1 5.115.039 3.712 3.712 0 0 1 .135 5.141L19.454 30.817a3.674 3.674 0 0 1-4.074.914 3.675 3.675 0 0 1-1.226-.815L1.17 17.862A3.693 3.693 0 0 1-.001 15.22a3.714 3.714 0 0 1 1.077-2.682 3.664 3.664 0 0 1 4.1-.763 3.68 3.68 0 0 1 1.195.857l10.275 10.325 17.042-21.83c.031-.038.063-.074.098-.109h-.005z"/>
    </symbol> -->
    <symbol id="icon-checkbox" viewBox="0 0 40 32">
<path fill="#f4f4fd" style="fill: var(--color1, #f4f4fd)" d="M33.782 1.020c0.691-0.662 1.611-1.027 2.565-1.020s1.869 0.387 2.55 1.059c0.681 0.672 1.076 1.584 1.101 2.543s-0.321 1.891-0.966 2.598l-19.578 24.617c-0.337 0.365-0.743 0.657-1.195 0.86s-0.939 0.312-1.434 0.322c-0.495 0.009-0.986-0.082-1.445-0.268s-0.876-0.463-1.226-0.815l-12.984-13.054c-0.362-0.339-0.652-0.747-0.853-1.201s-0.309-0.944-0.318-1.441 0.082-0.99 0.267-1.451c0.185-0.461 0.461-0.879 0.81-1.231s0.766-0.628 1.224-0.814 0.949-0.277 1.443-0.269c0.494 0.009 0.981 0.118 1.433 0.32s0.858 0.494 1.195 0.857l10.275 10.325 17.042-21.83c0.031-0.038 0.063-0.074 0.098-0.109h-0.005z"></path>
</symbol>
  </defs>
</svg>
<svg xmlns="http://www.w3.org/2000/svg" aria-hidden="true" style="position:absolute;width:0;height:0;overflow:hidden">
  <defs>
    <symbol id="icon-icon-send" viewBox="0 0 38 32">
      <path fill="#fff" d="M38.4 0 0 18l12.272 3.788L31.2 7 16.803 23.186l.012.004-.014-.004V32l6.882-6.691L32.401 28l6-28z" style="fill:var(--color1, #fff)"/>
    </symbol>
  </defs>
</svg>
  </defs>
</svg>